HIERARCHY
ROOT Hips
{
	OFFSET 0.000000 0.000000 0.000000
	CHANNELS 6 Xposition Yposition Zposition Zrotation Yrotation Xrotation 
	JOINT LHipJoint
	{
		OFFSET 0.000000 0.000000 0.000000
		CHANNELS 3 Zrotation Yrotation Xrotation
		JOINT LeftUpLeg
		{
			OFFSET 1.363060 -1.794630 0.839290
			CHANNELS 3 Zrotation Yrotation Xrotation
			JOINT LeftLeg
			{
				OFFSET 2.448110 -6.726130 0.000000
				CHANNELS 3 Zrotation Yrotation Xrotation
				JOINT LeftFoot
				{
					OFFSET 2.562200 -7.039590 0.000000
					CHANNELS 3 Zrotation Yrotation Xrotation
					JOINT LeftToeBase
					{
						OFFSET 0.157640 -0.433110 2.322550
						CHANNELS 3 Zrotation Yrotation Xrotation
						End Site
						{
							OFFSET 0.000000 0.000000 0.000000
						}
					}
				}
			}
		}
	}
	JOINT RHipJoint
	{
		OFFSET 0.000000 0.000000 0.000000
		CHANNELS 3 Zrotation Yrotation Xrotation
		JOINT RightUpLeg
		{
			OFFSET -1.305520 -1.794630 0.839290
			CHANNELS 3 Zrotation Yrotation Xrotation
			JOINT RightLeg
			{
				OFFSET -2.542530 -6.985550 0.000000
				CHANNELS 3 Zrotation Yrotation Xrotation
				JOINT RightFoot
				{
					OFFSET -2.568260 -7.056230 0.000000
					CHANNELS 3 Zrotation Yrotation Xrotation
					JOINT RightToeBase
					{
						OFFSET -0.164730 -0.452590 2.363150
						CHANNELS 3 Zrotation Yrotation Xrotation
						End Site
						{
							OFFSET 0.000000 0.000000 0.000000
						}
					}
				}
			}
		}
	}
}
MOTION
Frames: 28
Frame Time: 0.008333
-8.070592 16.925511 0.378653 -152.766352 85.945103 -118.926947 -12.445829 1.025226 -1.700735 -4.029042 -1.596656 -16.601535 -0.192908 1.213454 29.393614 1.490758 9.259308 7.812535 2.208300 0.000001 -66.581300 6.589881 0.544782 2.117618 8.064869 5.627124 -53.589400 3.796389 0.544462 11.806862 -1.215499 -3.915484 -4.725481 -1.024700 -0.000000 -51.326900
-7.864232 16.819113 0.391439 -148.449640 86.013798 -114.852880 -12.572919 1.036719 -1.696969 -3.900892 -1.440145 -16.684872 -0.092626 1.314322 31.601925 1.608301 10.065795 7.208943 2.309900 0.000000 -64.290700 6.540411 0.345348 1.962314 8.685520 5.726912 -54.513375 3.751557 -0.029033 15.357746 -1.108784 -3.500053 -4.374112 -0.995900 0.000000 -50.928300
-7.659205 16.705570 0.402253 -143.679072 86.054268 -110.357398 -12.700462 1.039258 -1.710669 -3.798232 -1.184415 -16.847575 0.008044 1.422423 34.017292 1.735510 10.946300 6.489795 2.397800 -0.000000 -61.293100 6.502551 0.158458 1.778620 9.333870 5.779667 -55.551032 3.662120 -0.650468 19.354680 -0.998292 -2.976004 -4.342614 -0.906399 -0.000000 -50.119600
-7.456326 16.586400 0.411192 -138.514122 86.056086 -105.512427 -12.824009 1.031946 -1.751921 -3.716100 -0.828651 -17.058486 0.108954 1.539957 36.609300 1.873508 11.905405 5.654243 2.465700 -0.000000 -57.614500 6.479069 -0.001359 1.566111 9.982775 5.797321 -56.624058 3.520870 -1.287616 23.673023 -0.899725 -2.411138 -4.678602 -0.771200 0.000001 -48.955199
-7.256273 16.463557 0.418406 -133.012143 86.007762 -100.380659 -12.941342 1.012576 -1.831565 -3.642016 -0.372011 -17.293299 0.210035 1.669532 39.343376 2.022374 12.937682 4.709044 2.505500 0.000000 -53.357201 6.469705 -0.126173 1.330878 10.609061 5.809967 -57.646720 3.329296 -1.904276 28.153070 -0.829323 -1.887433 -5.387996 -0.614300 -0.000000 -47.594800
-7.059820 16.339268 0.423813 -127.296501 85.898998 -95.090795 -13.053302 0.979403 -1.957964 -3.561204 0.177725 -17.528217 0.311454 1.814269 42.183417 2.181525 14.032717 3.664822 2.508300 0.000000 -48.676900 6.471428 -0.215465 1.075828 11.210978 5.833876 -58.529698 3.102056 -2.469836 32.624895 -0.795459 -1.458232 -6.448758 -0.454000 -0.000000 -46.213700
-6.867590 16.216042 0.427369 -121.529258 85.721983 -89.807890 -13.161197 0.931331 -2.136835 -3.459453 0.809482 -17.744182 0.413853 1.976651 45.088834 2.349224 15.173154 2.546210 2.467700 0.000000 -43.813100 6.480932 -0.274932 0.803128 11.795594 5.881561 -59.198392 2.858461 -2.965540 36.939697 -0.801214 -1.156198 -7.815671 -0.300700 0.000000 -45.018100
-6.680161 16.096147 0.428914 -115.957843 85.473168 -84.772384 -13.268339 0.867670 -2.366853 -3.325580 1.501085 -17.945475 0.518641 2.158522 48.034276 2.522555 16.335096 1.378071 2.378900 0.000000 -39.019700 6.493508 -0.314296 0.516223 12.373342 5.958572 -59.607279 2.618452 -3.384032 40.977032 -0.845462 -0.993058 -9.432903 -0.155499 0.000000 -44.096200
-6.497682 15.981785 0.428515 -110.784547 85.157722 -80.180852 -13.374664 0.790057 -2.644100 -3.158907 2.228853 -18.133343 0.627457 2.360014 50.988747 2.697610 17.491685 0.193815 2.242300 0.000000 -34.569200 6.508299 -0.341942 0.215683 12.950493 6.059170 -59.729439 2.396953 -3.728181 44.658494 -0.923182 -0.960753 -11.233344 -0.012600 -0.000000 -43.547600
-6.320019 15.874846 0.426339 -106.173714 84.788173 -76.185303 -13.478414 0.701256 -2.959848 -2.967596 2.962871 -18.324215 0.742007 2.579867 53.931768 2.869630 18.612511 -0.982526 2.059500 0.000000 -30.637900 6.526274 -0.363919 -0.096353 13.525413 6.171115 -59.563471 2.203725 -4.005401 47.933934 -1.027881 -1.041680 -13.144448 0.135700 -0.000001 -43.399900
-6.146843 15.776715 0.422744 -102.194559 84.384405 -72.842243 -13.576301 0.605373 -3.303141 -2.768769 3.675635 -18.539387 0.863686 2.815538 56.848068 3.033448 19.666095 -2.136383 1.833400 0.000000 -27.335500 6.550152 -0.383086 -0.416263 14.087131 6.279620 -59.125709 2.042962 -4.224907 50.782866 -1.152571 -1.213504 -15.096410 0.296400 0.000000 -43.598900
-5.977492 15.688346 0.418153 -98.855043 83.969167 -70.141656 -13.663862 0.506987 -3.660949 -2.585105 4.341041 -18.809301 0.993434 3.063177 59.727461 3.184180 20.622929 -3.265345 1.566000 0.000000 -24.664001 6.583809 -0.399658 -0.737931 14.618119 6.370910 -58.451063 1.914687 -4.395684 53.205801 -1.290252 -1.453782 -17.021830 0.472900 -0.000000 -44.055400
-5.811173 15.610257 0.413094 -96.110626 83.566386 -68.021763 -13.736689 0.410786 -4.019484 -2.442147 4.938962 -19.165884 1.131791 3.317783 62.559886 3.317942 21.459733 -4.368961 1.261700 0.000000 -22.619100 6.631219 -0.411989 -1.053214 15.096464 6.434536 -57.585897 1.815766 -4.525755 55.222482 -1.434330 -1.741839 -18.863026 0.664900 0.000001 -44.644200
-5.646728 15.542550 0.408120 -93.910739 83.198279 -66.409897 -13.790784 0.320884 -4.364379 -2.364608 5.453490 -19.646580 1.278089 3.573661 65.337598 3.431917 22.158538 -5.466559 0.919600 0.000001 -21.013300 6.695818 -0.417755 -1.351781 15.500670 6.465313 -56.588408 1.741248 -4.621925 56.865903 -1.579091 -2.060831 -20.573517 0.868800 -0.000000 -45.238200
-5.483145 15.485004 0.403697 -92.186978 82.883151 -65.220874 -13.823964 0.240015 -4.682908 -2.372813 5.877675 -20.280149 1.431487 3.824596 68.047907 3.525392 22.714621 -6.562262 0.545300 0.000001 -19.781399 6.779469 -0.414982 -1.623536 15.812913 6.462805 -55.515809 1.685165 -4.690060 58.181003 -1.719840 -2.397452 -22.121929 1.079200 0.000000 -45.728900
-5.319387 15.437145 0.400113 -90.881111 82.634059 -64.381043 -13.835479 0.169163 -4.964067 -2.480280 6.210324 -21.090253 1.590188 4.064482 70.675706 3.599251 23.132492 -7.661791 0.144800 -0.000000 -18.823200 6.882383 -0.402624 -1.858791 16.021410 6.430713 -54.423503 1.641687 -4.735043 59.216891 -1.853312 -2.742534 -23.491525 1.290300 0.000000 -46.051300
-5.154510 15.398336 0.397490 -89.943735 82.458134 -63.830554 -13.826336 0.107352 -5.199527 -2.691711 6.456413 -22.090035 1.751649 4.287849 73.202278 3.656111 23.427244 -8.766115 -0.274400 0.000000 -18.061300 7.002754 -0.381320 -2.049834 16.123289 6.374699 -53.357462 1.605807 -4.760993 60.023117 -1.977786 -3.090552 -24.680014 1.497500 0.000000 -46.190300
-4.987837 15.367898 0.395691 -89.334910 82.355401 -63.523762 -13.798553 0.051602 -5.384837 -3.002636 6.625663 -23.281150 1.912487 4.490543 75.605926 3.699778 23.620977 -9.875807 -0.705700 0.000000 -17.391800 7.137052 -0.352987 -2.192168 16.123855 6.301215 -52.351821 1.574110 -4.771328 60.643770 -2.092965 -3.438247 -25.698067 1.697800 -0.000000 -46.175000
-4.818972 15.345167 0.394372 -89.022000 82.321026 -63.430703 -13.755251 -0.002200 -5.518683 -3.400785 6.730949 -24.651430 2.068903 4.669812 77.862145 3.734832 23.740951 -10.985077 -1.141800 0.000000 -16.760100 7.280182 -0.321208 -2.284785 16.035682 6.214821 -51.422296 1.544903 -4.768608 61.113420 -2.199525 -3.783519 -26.564721 1.889800 -0.000000 -46.066500
-4.647758 15.329628 0.393032 -88.978548 82.345783 -63.532439 -13.699529 -0.058766 -5.603408 -3.868261 6.786603 -26.177365 2.216682 4.824528 79.945091 3.766075 23.816015 -12.087305 -1.577300 0.000000 -16.116200 7.426330 -0.290247 -2.330682 15.876419 6.117775 -50.568851 1.518364 -4.754631 61.454244 -2.298855 -4.124749 -27.304384 2.073600 -0.000000 -45.941500
-4.474321 15.320956 0.391091 -89.184089 82.418033 -63.821221 -13.633965 -0.122659 -5.644384 -4.383733 6.806985 -27.826759 2.351329 4.955071 81.828631 3.797733 23.871685 -13.176801 -2.009500 -0.000000 -15.418100 7.569728 -0.264485 -2.336651 15.665848 6.009257 -49.774695 1.496251 -4.730317 61.674581 -2.392383 -4.459621 -27.941678 2.249901 0.000000 -45.877800
-4.298887 15.319026 0.388017 -89.623861 82.525798 -64.297416 -13.560159 -0.197260 -5.648863 -4.926310 6.804711 -29.561793 2.468347 5.062800 83.487548 3.832899 23.926973 -14.246571 -2.436500 0.000000 -14.652200 7.705322 -0.247667 -2.312017 15.423006 5.886085 -49.011477 1.481454 -4.695662 61.768925 -2.481355 -4.785443 -28.497780 2.419300 -0.000001 -45.940600
-4.121727 15.323947 0.383292 -90.291507 82.658140 -64.970091 -13.478633 -0.284399 -5.624899 -5.477158 6.789287 -31.343456 2.563204 5.149717 84.899608 3.873175 23.991506 -15.295927 -2.859400 0.000000 -13.785000 7.829344 -0.242393 -2.267674 15.163415 5.742524 -48.243125 1.477478 -4.649870 61.720737 -2.566607 -5.098987 -28.989043 2.582200 -0.000001 -46.172800
-3.943120 15.336024 0.376581 -91.190716 82.805500 -65.857419 -13.388646 -0.384233 -5.580335 -6.020499 6.766756 -33.133985 2.631787 5.217779 86.044844 3.918322 24.064398 -16.318859 -3.276700 -0.000000 -12.833100 7.939632 -0.249817 -2.214643 14.898768 5.572640 -47.430338 1.487803 -4.591412 61.504944 -2.648462 -5.397208 -29.424318 2.738200 0.000000 -46.587000
-3.763262 15.355616 0.367644 -92.342522 82.962308 -66.992672 -13.289495 -0.495395 -5.520421 -6.546189 6.737110 -34.901035 2.670916 5.268219 86.908095 3.966472 24.135908 -17.302657 -3.682600 0.000000 -11.884800 8.034987 -0.270049 -2.162236 14.634579 5.369407 -46.537360 1.515173 -4.518380 61.094169 -2.726830 -5.677618 -29.806055 2.886000 -0.000000 -47.156400
-3.582043 15.383190 0.356326 -93.776922 83.122275 -68.412116 -13.178642 -0.615100 -5.450826 -7.046735 6.700109 -36.617674 2.677005 5.302393 87.478452 4.014110 24.183907 -18.253943 -4.076400 0.000000 -10.865700 8.116609 -0.301296 -2.118468 14.372648 5.128970 -45.532745 1.561327 -4.428590 60.459818 -2.801275 -5.939604 -30.129078 3.023700 -0.000000 -47.829500
-3.399417 15.419098 0.342533 -95.542404 83.283169 -70.169773 -13.055607 -0.740397 -5.372812 -7.519314 6.649360 -38.263307 2.648643 5.320099 87.748883 4.056928 24.185091 -19.152192 -4.444400 -0.000000 -9.917400 8.185013 -0.342068 -2.087821 14.110548 4.848717 -44.394183 1.626281 -4.320068 59.580216 -2.871053 -6.183791 -30.382633 3.148900 -0.000000 -48.522100
-3.215010 15.463585 0.326251 -97.693268 83.441867 -72.320477 -12.919014 -0.867696 -5.286602 -7.964192 6.578239 -39.824161 2.584724 5.320805 87.716180 4.090375 24.113183 -19.987957 -4.775300 -0.000000 -9.058800 8.242439 -0.389837 -2.071970 13.842930 4.529660 -43.109713 1.708215 -4.191199 58.440800 -2.935006 -6.412939 -30.548452 3.258100 0.000000 -49.150500
